<?xml version="1.0" encoding="utf-8"?>
<!-- Generator: Adobe Illustrator 17.0.0, SVG Export Plug-In . SVG Version: 6.00 Build 0)  -->
<!DOCTYPE svg PUBLIC "-//W3C//DTD SVG 1.1//EN" "http://www.w3.org/Graphics/SVG/1.1/DTD/svg11.dtd">
<svg version="1.1" id="Export_SVG" xmlns="http://www.w3.org/2000/svg" xmlns:xlink="http://www.w3.org/1999/xlink" x="0px" y="0px"
	 width="1920px" height="1080px" viewBox="0 0 1920 1080" enable-background="new 0 0 1920 1080" xml:space="preserve">
<path fill="none" stroke="#000000" stroke-miterlimit="10" d="M696.909,477.543c4.728,0,9.176,0.754,13.343,2.261
	s7.816,3.62,10.949,6.339s5.615,5.955,7.447,9.708s2.748,7.876,2.748,12.367c0,4.551-0.561,8.467-1.684,11.747
	c-1.123,3.28-2.645,6.073-4.566,8.378c-1.921,2.305-5.386,4.167-7.898,5.585c-2.512,1.419-6.435,2.541-9.272,3.369v0.709
	c3.251,0.709,7.558,1.803,10.425,3.28c2.867,1.478,6.628,3.458,8.785,5.94s3.871,5.526,5.142,9.131
	c1.271,3.605,1.906,7.89,1.906,12.855s-0.946,9.501-2.837,13.608s-4.477,7.61-7.757,10.506s-7.122,5.142-11.525,6.738
	c-4.403,1.596-9.117,2.394-14.14,2.394H615V477.543H696.909z"/>
</svg>
