<?xml version="1.0" encoding="utf-8"?>
<!-- Generator: Adobe Illustrator 17.0.0, SVG Export Plug-In . SVG Version: 6.00 Build 0)  -->
<!DOCTYPE svg PUBLIC "-//W3C//DTD SVG 1.1//EN" "http://www.w3.org/Graphics/SVG/1.1/DTD/svg11.dtd">
<svg version="1.1" id="Export_SVG" xmlns="http://www.w3.org/2000/svg" xmlns:xlink="http://www.w3.org/1999/xlink" x="0px" y="0px"
	 width="1920px" height="1080px" viewBox="0 0 1920 1080" enable-background="new 0 0 1920 1080" xml:space="preserve">
<path fill="none" stroke="#000000" stroke-miterlimit="10" d="M696.909,477.543c4.728,0,9.176,0.754,13.343,2.261
	c4.167,1.507,7.816,3.62,10.949,6.339c3.133,2.719,5.615,5.955,7.447,9.708s2.748,7.876,2.748,12.367
	c0,4.551-0.561,8.467-1.684,11.747c-1.123,3.28-2.645,6.073-4.566,8.378c-1.921,2.305-5.386,4.167-7.898,5.585
	c-2.512,1.419-6.435,2.541-9.272,3.369v0.709c3.251,0.709,7.558,1.803,10.425,3.28c2.867,1.478,6.628,3.458,8.785,5.94
	c2.157,2.482,3.871,5.526,5.142,9.131c1.271,3.605,1.906,7.89,1.906,12.855s-0.946,9.501-2.837,13.608s-4.477,7.61-7.757,10.506
	s-7.122,5.142-11.525,6.738c-4.403,1.596-9.117,2.394-14.14,2.394H615V477.543H696.909z"/>
<path fill="none" stroke="#000000" stroke-miterlimit="10" d="M873.251,526.524c-1.005,3.458-2.512,6.693-4.521,9.708
	s-4.521,5.718-7.536,8.112s-6.531,4.329-10.55,5.807l27.749,52.306h-45.037l-22.164-45.568h-14.894v45.568h-40.072V477.543h76.42
	c6.915,0,13.003,1.049,18.263,3.147s9.663,4.906,13.21,8.422c3.546,3.517,6.206,7.58,7.979,12.19c1.773,4.61,2.66,9.457,2.66,14.539
	C874.758,519.506,874.256,523.067,873.251,526.524z"/>
<path fill="none" stroke="#000000" stroke-miterlimit="10" d="M897.454,602.457V477.543h107.981v28.716h-67.909v20.946h55.659
	v23.728h-55.659v22.808h69.151v28.716H897.454z"/>
<path fill="none" stroke="#000000" stroke-miterlimit="10" d="M1154.73,602.457h-42.466l-5.319-17.642h-43.707l-5.319,17.642
	h-41.047l45.657-124.914h46.632L1154.73,602.457z"/>
<path fill="none" stroke="#000000" stroke-miterlimit="10" d="M1209.873,530.913l44.505-53.37h49.735l-44.859,51.42L1305,602.457
	h-47.342l-25.976-45.746l-21.809,17.82v27.926h-40.072V477.543h40.072V530.913z"/>
</svg>
