<?xml version="1.0" encoding="utf-8"?>
<!-- Generator: Adobe Illustrator 17.0.0, SVG Export Plug-In . SVG Version: 6.00 Build 0)  -->
<!DOCTYPE svg PUBLIC "-//W3C//DTD SVG 1.1//EN" "http://www.w3.org/Graphics/SVG/1.1/DTD/svg11.dtd">
<svg version="1.1" id="Export_SVG" xmlns="http://www.w3.org/2000/svg" xmlns:xlink="http://www.w3.org/1999/xlink" x="0px" y="0px"
	 width="1024px" height="768px" viewBox="0 0 1024 768" enable-background="new 0 0 1024 768" xml:space="preserve">
<path fill="none" stroke="#000000" stroke-miterlimit="10" d="M425.251,370.524c-1.005,3.458-2.512,6.693-4.521,9.708
	c-2.009,3.014-4.521,5.718-7.536,8.112s-6.531,4.329-10.55,5.807l27.749,52.306h-45.037l-22.164-45.569h-14.894v45.569h-40.072
	V321.543h76.42c6.915,0,13.003,1.049,18.263,3.147s9.663,4.906,13.21,8.422c3.546,3.517,6.206,7.58,7.979,12.19
	c1.773,4.61,2.66,9.457,2.66,14.539C426.758,363.506,426.256,367.067,425.251,370.524z"/>
</svg>
