<?xml version="1.0" encoding="utf-8"?>
<!-- Generator: Adobe Illustrator 17.0.0, SVG Export Plug-In . SVG Version: 6.00 Build 0)  -->
<!DOCTYPE svg PUBLIC "-//W3C//DTD SVG 1.1//EN" "http://www.w3.org/Graphics/SVG/1.1/DTD/svg11.dtd">
<svg version="1.1" id="Export_SVG" xmlns="http://www.w3.org/2000/svg" xmlns:xlink="http://www.w3.org/1999/xlink" x="0px" y="0px"
	 width="1024px" height="768px" viewBox="0 0 1024 768" enable-background="new 0 0 1024 768" xml:space="preserve">
<path fill="none" stroke="#000000" stroke-miterlimit="10" d="M248.909,321.543c4.728,0,9.176,0.754,13.343,2.261
	c4.167,1.507,7.816,3.62,10.949,6.339s5.615,5.955,7.447,9.708c1.832,3.753,2.748,7.876,2.748,12.367
	c0,4.551-0.561,8.467-1.684,11.747c-1.123,3.28-2.645,6.073-4.566,8.378c-1.921,2.305-5.386,4.167-7.898,5.585
	c-2.512,1.418-6.435,2.541-9.272,3.369v0.709c3.251,0.709,7.558,1.803,10.425,3.28c2.866,1.478,6.628,3.458,8.785,5.94
	s3.871,5.526,5.142,9.131s1.906,7.89,1.906,12.855s-0.946,9.501-2.837,13.608s-4.477,7.61-7.757,10.506
	c-3.28,2.896-7.122,5.142-11.525,6.738c-4.403,1.596-9.117,2.394-14.14,2.394H167V321.543H248.909z"/>
<path fill="none" stroke="#000000" stroke-miterlimit="10" d="M425.251,370.524c-1.005,3.458-2.512,6.693-4.521,9.708
	c-2.009,3.014-4.521,5.718-7.536,8.112s-6.531,4.329-10.55,5.807l27.749,52.306h-45.037l-22.164-45.569h-14.894v45.569h-40.072
	V321.543h76.42c6.915,0,13.003,1.049,18.263,3.147c5.26,2.098,9.663,4.906,13.21,8.422c3.546,3.517,6.206,7.58,7.979,12.19
	c1.773,4.61,2.66,9.457,2.66,14.539C426.758,363.506,426.256,367.067,425.251,370.524z"/>
<path fill="none" stroke="#000000" stroke-miterlimit="10" d="M449.454,446.457V321.543h107.981v28.716h-67.91v20.946h55.659v23.728
	h-55.659v22.808h69.151v28.716H449.454z"/>
<path fill="none" stroke="#000000" stroke-miterlimit="10" d="M706.73,446.457h-42.466l-5.319-17.642h-43.707l-5.319,17.642h-41.047
	l45.657-124.914h46.632L706.73,446.457z"/>
<path fill="none" stroke="#000000" stroke-miterlimit="10" d="M761.873,374.913l44.505-53.37h49.735l-44.859,51.42L857,446.457
	h-47.342l-25.976-45.746l-21.809,17.82v27.926h-40.072V321.543h40.072V374.913z"/>
</svg>
